<?xml version="1.0" encoding="UTF-8"?>
<svg xmlns="http://www.w3.org/2000/svg" xmlns:xlink="http://www.w3.org/1999/xlink" version="1.1" id="Layer_1" x="0px" y="0px" width="260px" height="50px" viewBox="0 0 260 50" xml:space="preserve">
<path d="M18.781,31.483h4v0.223c0,1.059-0.402,2.13-1.205,3.212c-0.803,1.083-1.857,1.915-3.162,2.496s-2.874,0.871-4.708,0.871  c-3.52,0-6.232-1.116-8.134-3.35c-1.903-2.233-2.854-5.32-2.854-9.263c0-3.93,0.951-7.008,2.854-9.236  c1.902-2.227,4.614-3.341,8.134-3.341c1.834,0,3.404,0.287,4.708,0.858c1.304,0.573,2.359,1.359,3.162,2.359  c0.803,1,1.205,2.115,1.205,3.345v0.205h-4v-0.205c0.046-0.865-0.333-1.626-1.136-2.281c-0.804-0.655-2.048-0.983-3.734-0.983  c-1.994,0-3.666,0.734-5.016,2.201C7.545,20.061,6.87,22.42,6.87,25.673c0,3.265,0.675,5.634,2.025,7.105  c1.35,1.473,3.022,2.209,5.016,2.209c1.686,0,2.92-0.33,3.7-0.987c0.781-0.658,1.17-1.422,1.17-2.293V31.483z"></path>
<path d="M31.718,37.619h-3.982V3.133h3.982L31.701,17.88c0.843-1.298,1.661-2.261,2.452-2.887s1.618-1.099,2.478-1.418  c0.86-0.319,1.82-0.479,2.879-0.479c1.493,0,2.833,0.305,4.024,0.915c1.19,0.609,2.113,1.51,2.768,2.701  c0.656,1.19,0.983,3.095,0.983,5.715v15.193h-3.982V24.125c0-2.132-0.142-3.646-0.426-4.541c-0.284-0.896-0.825-1.593-1.621-2.094  c-0.796-0.502-1.706-0.753-2.73-0.753c-1.161,0-2.267,0.342-3.319,1.026c-1.053,0.684-1.897,1.639-2.534,2.865  c-0.637,1.226-0.955,2.979-0.955,5.26V37.619z"></path>
<path d="M68.852,31.483h3.981v0.223c0,1.048-0.421,2.122-1.265,3.221c-0.843,1.1-1.954,1.934-3.332,2.504  c-1.379,0.569-2.968,0.854-4.769,0.854c-3.623,0-6.423-1.176-8.399-3.528c-1.978-2.353-2.965-5.324-2.965-8.913  c0-3.667,1.045-6.709,3.136-9.125c2.09-2.416,4.776-3.624,8.057-3.624c1.812,0,3.453,0.391,4.922,1.171  c1.47,0.781,2.631,2.002,3.486,3.666c0.854,1.663,1.282,3.976,1.282,6.938v1.315H56.035c0,2.558,0.689,4.664,2.069,6.318  c1.378,1.655,3.28,2.483,5.707,2.483c1.754,0,3.034-0.342,3.836-1.022c0.804-0.681,1.205-1.434,1.205-2.258V31.483z M56.291,23.196  h12.886v-0.462c0-1.119-0.268-2.205-0.804-3.256c-0.535-1.05-1.273-1.827-2.213-2.33c-0.939-0.503-2.036-0.754-3.29-0.754  c-1.481,0-2.848,0.594-4.102,1.782C57.516,19.364,56.69,21.037,56.291,23.196"></path>
<path d="M93.172,37.619c-0.413-1.287-0.618-2.393-0.618-3.316c-1.744,1.721-3.23,2.814-4.46,3.282c-1.231,0.467-2.41,0.7-3.538,0.7  c-1.891,0-3.517-0.581-4.879-1.744c-1.361-1.163-2.042-2.765-2.042-4.806c0-2.304,0.959-4.082,2.879-5.336  c1.919-1.254,5.22-2.337,9.903-3.25l2.136-0.411v-2.703c0-1.459-0.492-2.485-1.476-3.077c-0.984-0.593-2.165-0.89-3.541-0.89  c-1.649,0-2.935,0.361-3.855,1.084c-0.921,0.724-1.382,1.57-1.382,2.538v0.341h-4.34v-0.307c0-1.06,0.444-2.149,1.334-3.269  c0.889-1.12,2.072-1.963,3.549-2.529c1.476-0.566,3.093-0.85,4.85-0.85c1.732,0,3.312,0.271,4.737,0.812s2.466,1.27,3.122,2.188  c0.656,0.917,0.984,2.64,0.984,5.169v9.279c0,1.014,0.025,2.078,0.076,3.194c0.052,1.117,0.305,2.416,0.761,3.897H93.172z   M92.554,25.571l-1.194,0.29c-4.027,0.992-6.6,1.929-7.72,2.811c-1.121,0.884-1.681,1.935-1.681,3.153  c0,0.627,0.165,1.211,0.495,1.752c0.33,0.542,0.821,0.963,1.476,1.265c0.654,0.303,1.306,0.453,1.954,0.453  c1.104,0,2.192-0.324,3.268-0.975c1.075-0.648,1.911-1.515,2.508-2.597c0.597-1.083,0.896-2.342,0.896-3.777V25.571z"></path>
<path d="M106.31,46.898h-3.982V13.762h3.982v4.136c0.82-1.413,1.604-2.41,2.35-2.99c0.746-0.581,1.589-1.028,2.529-1.342  c0.94-0.313,1.911-0.47,2.914-0.47c1.823,0,3.489,0.496,4.998,1.487c1.51,0.991,2.681,2.469,3.512,4.435s1.247,4.173,1.247,6.622  c0,3.622-0.871,6.636-2.614,9.039c-1.743,2.405-4.187,3.606-7.331,3.606c-1.014,0-1.974-0.147-2.879-0.444  c-0.906-0.296-1.707-0.731-2.401-1.308c-0.695-0.575-1.47-1.604-2.324-3.084V46.898z M106.31,25.699c0,2.713,0.584,4.94,1.751,6.679  c1.168,1.74,2.812,2.609,4.931,2.609c1.936,0,3.545-0.771,4.827-2.31c1.281-1.54,1.922-3.843,1.922-6.91  c0-3.581-0.678-6.063-2.033-7.449c-1.356-1.385-2.9-2.078-4.631-2.078c-1.253,0-2.424,0.379-3.512,1.138  c-1.088,0.758-1.903,1.89-2.443,3.396C106.581,22.278,106.31,23.92,106.31,25.699"></path>
<path d="M144.573,31.483h3.98v0.223c0,1.048-0.422,2.122-1.265,3.221c-0.843,1.1-1.953,1.934-3.332,2.504  c-1.379,0.569-2.968,0.854-4.768,0.854c-3.623,0-6.423-1.176-8.4-3.528c-1.976-2.353-2.964-5.324-2.964-8.913  c0-3.667,1.045-6.709,3.136-9.125c2.091-2.416,4.776-3.624,8.058-3.624c1.812,0,3.452,0.391,4.922,1.171  c1.47,0.781,2.631,2.002,3.485,3.666c0.854,1.663,1.281,3.976,1.281,6.938v1.315h-16.951c0,2.558,0.688,4.664,2.068,6.318  c1.377,1.655,3.28,2.483,5.707,2.483c1.754,0,3.032-0.342,3.836-1.022c0.803-0.681,1.206-1.434,1.206-2.258V31.483z M132.012,23.196  h12.885v-0.462c0-1.119-0.268-2.205-0.803-3.256c-0.535-1.05-1.273-1.827-2.213-2.33c-0.94-0.503-2.036-0.754-3.289-0.754  c-1.481,0-2.849,0.594-4.102,1.782C133.236,19.364,132.41,21.037,132.012,23.196"></path>
<path d="M152.706,31.33h3.965v0.085c0,1.025,0.393,1.878,1.18,2.555c0.786,0.678,2.108,1.018,3.964,1.018  c1.642,0,2.971-0.399,3.99-1.197s1.529-1.738,1.529-2.822c0-1.471-0.996-2.514-2.99-3.13l-2.033-0.615l-1.351-0.428l-2.751-0.855  c-3.145-1.151-4.717-3.067-4.717-5.746c0-1.881,0.76-3.534,2.282-4.959c1.521-1.425,3.784-2.138,6.792-2.138  c2.962,0,5.07,0.61,6.323,1.829c1.253,1.22,1.88,2.569,1.88,4.05v0.085h-3.999v-0.086c0-0.802-0.4-1.434-1.204-1.892  s-1.872-0.688-3.205-0.688c-1.595,0-2.816,0.331-3.666,0.993c-0.848,0.661-1.272,1.476-1.272,2.446c0,0.741,0.273,1.342,0.821,1.804  c0.546,0.462,1.469,0.881,2.768,1.257l1.914,0.531l1.4,0.41c1.938,0.547,3.143,0.935,3.615,1.164  c0.473,0.228,0.954,0.524,1.444,0.89c0.671,0.513,1.167,1.132,1.486,1.854c0.318,0.725,0.479,1.571,0.479,2.541  c0,2.257-0.809,4.155-2.426,5.694c-1.618,1.539-3.978,2.309-7.076,2.309c-1.971,0-3.603-0.292-4.896-0.875  c-1.293-0.584-2.324-1.391-3.094-2.419c-0.769-1.028-1.153-2.221-1.153-3.576V31.33z"></path>
<path fill="#61CAE9" d="M191.054,34.234v3.333c-1.938,0.479-3.417,0.718-4.442,0.718c-1.481,0-2.817-0.299-4.008-0.897  c-1.191-0.598-2.097-1.467-2.718-2.605c-0.62-1.14-0.931-2.957-0.931-5.451v-12.27h-4.136v-3.299h4.136V8.123h3.981v5.639h6.955  v3.299h-6.955v11.153c0,2.109,0.163,3.572,0.487,4.387c0.324,0.815,0.84,1.417,1.547,1.805c0.706,0.389,1.549,0.582,2.528,0.582  C188.285,34.987,189.471,34.736,191.054,34.234"></path>
<rect x="195.855" y="13.762" fill="#61CAE9" width="3.982" height="23.857"></rect>
<rect x="206.126" y="3.133" fill="#61CAE9" width="3.982" height="34.486"></rect>
<path fill="#61CAE9" d="M231.981,31.483h3.981v0.223c0,1.048-0.421,2.122-1.264,3.221c-0.843,1.1-1.954,1.934-3.333,2.504  c-1.378,0.569-2.969,0.854-4.769,0.854c-3.622,0-6.422-1.176-8.398-3.528s-2.965-5.324-2.965-8.913c0-3.667,1.045-6.709,3.136-9.125  c2.09-2.416,4.776-3.624,8.057-3.624c1.812,0,3.452,0.391,4.923,1.171c1.47,0.781,2.631,2.002,3.485,3.666  c0.854,1.663,1.281,3.976,1.281,6.938v1.315h-16.952c0,2.558,0.688,4.664,2.068,6.318c1.378,1.655,3.281,2.483,5.707,2.483  c1.755,0,3.034-0.342,3.838-1.022c0.802-0.681,1.204-1.434,1.204-2.258V31.483z M219.422,23.196h12.885v-0.462  c0-1.119-0.269-2.205-0.804-3.256c-0.536-1.05-1.272-1.827-2.214-2.33c-0.938-0.503-2.035-0.754-3.289-0.754  c-1.48,0-2.848,0.594-4.102,1.782C220.646,19.364,219.819,21.037,219.422,23.196"></path>
<path fill="#61CAE9" d="M240.115,31.33h3.965v0.085c0,1.025,0.393,1.878,1.18,2.555c0.786,0.678,2.106,1.018,3.965,1.018  c1.639,0,2.97-0.399,3.99-1.197c1.019-0.798,1.528-1.738,1.528-2.822c0-1.471-0.996-2.514-2.99-3.13l-2.033-0.615l-1.35-0.428  l-2.752-0.855c-3.145-1.151-4.717-3.067-4.717-5.746c0-1.881,0.76-3.534,2.281-4.959c1.521-1.425,3.785-2.138,6.793-2.138  c2.962,0,5.069,0.61,6.323,1.829c1.253,1.22,1.88,2.569,1.88,4.05v0.085h-3.998v-0.086c0-0.802-0.402-1.434-1.205-1.892  c-0.804-0.458-1.872-0.688-3.205-0.688c-1.595,0-2.816,0.331-3.665,0.993c-0.85,0.661-1.273,1.476-1.273,2.446  c0,0.741,0.273,1.342,0.82,1.804c0.547,0.462,1.47,0.881,2.769,1.257l1.914,0.531l1.4,0.41c1.938,0.547,3.142,0.935,3.615,1.164  c0.472,0.228,0.954,0.524,1.443,0.89c0.672,0.513,1.168,1.132,1.487,1.854c0.318,0.725,0.479,1.571,0.479,2.541  c0,2.257-0.81,4.155-2.427,5.694c-1.618,1.539-3.977,2.309-7.075,2.309c-1.971,0-3.604-0.292-4.896-0.875  c-1.293-0.584-2.324-1.391-3.093-2.419s-1.154-2.221-1.154-3.576V31.33z"></path>
<path fill="#EC1E24" d="M200.471,6.601c0,1.479-1.198,2.678-2.677,2.678c-1.479,0-2.678-1.198-2.678-2.678  c0-1.479,1.198-2.678,2.678-2.678C199.272,3.923,200.471,5.122,200.471,6.601"></path>
<g>
</g>
<g>
</g>
<g>
</g>
<g>
</g>
<g>
</g>
<g>
</g>
<g>
</g>
<g>
</g>
<g>
</g>
<g>
</g>
<g>
</g>
<g>
</g>
<g>
</g>
<g>
</g>
<g>
</g>
</svg>
